<svg width="88" height="88" viewBox="0 0 88 88" fill="none" xmlns="http://www.w3.org/2000/svg">
<path fill-rule="evenodd" clip-rule="evenodd" d="M36.7502 79.6426C25.4183 78.2035 13.8666 73.209 8.00993 64.3966C2.41046 55.9712 6.83632 46.2919 8.36768 36.9361C9.97475 27.1177 8.26817 15.5442 16.9942 9.50687C26.0618 3.23329 39.5231 4.21998 50.9797 7.454C61.438 10.4062 69.4694 17.5889 75.1517 25.9238C80.436 33.675 82.5823 42.5598 80.7665 51.146C78.9732 59.6258 73.2663 66.648 65.4722 71.694C57.1585 77.0763 47.3163 80.9844 36.7502 79.6426Z" fill="#EE2A31"/>
<path d="M53.345 47.9433C51.91 47.9433 50.5217 47.71 49.2267 47.29C49.0238 47.2212 48.8056 47.211 48.5972 47.2605C48.3888 47.3101 48.1986 47.4173 48.0483 47.57L46.2167 49.8683C42.915 48.2933 39.8233 45.3183 38.1783 41.9L40.4533 39.9633C40.7683 39.6367 40.8617 39.1817 40.7333 38.7733C40.3017 37.4783 40.08 36.09 40.08 34.655C40.08 34.025 39.555 33.5 38.925 33.5H34.8883C34.2583 33.5 33.5 33.78 33.5 34.655C33.5 45.4933 42.5183 54.5 53.345 54.5C54.1733 54.5 54.5 53.765 54.5 53.1233V49.0983C54.5 48.4683 53.975 47.9433 53.345 47.9433Z" fill="white"/>
</svg>
