<svg width="16" height="16" viewBox="0 0 16 16" fill="none" xmlns="http://www.w3.org/2000/svg">
<path d="M8.04009 9.76689C7.96269 9.76689 7.88821 9.75576 7.81658 9.73356C7.74448 9.71136 7.68081 9.66689 7.62556 9.60022L4.62435 6.60022C4.53592 6.50022 4.4917 6.38355 4.4917 6.25022C4.4917 6.11688 4.54144 6.00022 4.64093 5.90022C4.74042 5.81133 4.85649 5.76688 4.98914 5.76688C5.12179 5.76688 5.23786 5.81133 5.33734 5.90022L8.04009 8.61689L10.7594 5.90022C10.8478 5.80022 10.9584 5.75288 11.091 5.75822C11.2237 5.764 11.3398 5.81133 11.4392 5.90022C11.5387 6.00022 11.5885 6.11955 11.5885 6.25822C11.5885 6.39733 11.5387 6.51133 11.4392 6.60022L8.45462 9.60022C8.39938 9.66689 8.3359 9.71136 8.26427 9.73356C8.19218 9.75576 8.11749 9.76689 8.04009 9.76689Z" fill="#1B1F22"/>
</svg>
