<svg width="94" height="89" viewBox="0 0 94 89" fill="none" xmlns="http://www.w3.org/2000/svg">
<path fill-rule="evenodd" clip-rule="evenodd" d="M31.0867 21.1402C38.9041 12.9043 50.8821 18.2897 60.7796 20.0991C68.5221 21.5145 75.9952 23.6821 79.9959 30.0814C84.2709 36.9195 86.2922 45.965 82.1596 54.2974C78.1884 62.3042 68.9216 65.2121 60.7882 68.8084C52.0002 72.6941 41.9121 79.7226 34.8633 75.2101C27.8608 70.7273 32.6382 59.1948 32.0235 50.3941C31.3127 40.2179 23.293 29.3509 31.0867 21.1402Z" fill="#FFD8D9"/>
<path d="M32.9643 2.5H9.39286C6.13831 2.5 3.5 5.13831 3.5 8.39286V51.6072C3.5 54.8617 6.13831 57.5 9.39286 57.5H32.9643C36.2189 57.5 38.8572 54.8617 38.8572 51.6072V8.39286C38.8572 5.13831 36.2189 2.5 32.9643 2.5ZM36.8929 50.625C36.8929 53.3326 34.6907 55.5357 31.9822 55.5357H10.375C7.6674 55.5357 5.46429 53.3326 5.46429 50.625V9.375C5.46429 6.6674 7.6674 4.46429 10.375 4.46429H31.9822C34.6907 4.46429 36.8929 6.6674 36.8929 9.375V50.625Z" fill="#EE2A31"/>
<path d="M31.9818 6.42847H25.1068C25.1068 8.59813 23.3479 10.357 21.1782 10.357C19.0086 10.357 17.2497 8.59813 17.2497 6.42847H10.3747C8.7499 6.42847 7.42822 7.75014 7.42822 9.3749V50.6249C7.42822 52.2497 8.7499 53.5714 10.3747 53.5714H31.9818C33.6066 53.5714 34.9282 52.2497 34.9282 50.6249V9.3749C34.9282 7.75014 33.6066 6.42847 31.9818 6.42847ZM18.8783 36.1354C19.2868 36.4932 19.3281 37.1137 18.9713 37.5214C18.7766 37.7439 18.5052 37.8571 18.2318 37.8571C18.0016 37.8571 17.7714 37.7775 17.5854 37.6144L9.7282 30.7394C9.51432 30.5524 9.39251 30.2829 9.39251 29.9999C9.39251 29.717 9.51432 29.4475 9.7282 29.2604L17.5854 22.3854C17.9939 22.0277 18.6135 22.067 18.9713 22.4785C19.3281 22.8861 19.2868 23.5066 18.8783 23.8644L11.8661 29.9999L18.8783 36.1354ZM32.6283 30.7394L24.7711 37.6144C24.585 37.7775 24.3549 37.8571 24.1247 37.8571C23.8513 37.8571 23.5799 37.7439 23.3852 37.5214C23.0284 37.1137 23.0696 36.4932 23.4782 36.1354L30.4904 29.9999L23.4782 23.8644C23.0696 23.5066 23.0284 22.8861 23.3852 22.4785C23.7429 22.067 24.3625 22.0277 24.7711 22.3854L32.6283 29.2604C32.8421 29.4475 32.964 29.717 32.964 29.9999C32.964 30.2829 32.8421 30.5524 32.6283 30.7394Z" fill="#EE2A31"/>
<path d="M57.501 33.7262L54.7329 32.1648C54.8403 31.4339 54.8941 30.7108 54.8941 30C54.8941 29.2893 54.8403 28.5662 54.7329 27.8353L57.501 26.2738C57.9613 26.0139 58.297 25.5804 58.4332 25.0711C58.5694 24.5609 58.4965 24.018 58.228 23.5634L54.2073 16.7593C53.6645 15.8405 52.4866 15.5221 51.5505 16.0477L48.7346 17.6369C47.5472 16.7238 46.2312 15.9776 44.8424 15.4271V12.3215C44.8424 11.2367 43.9639 10.3572 42.8781 10.3572H40.8218V22.1429C45.1612 22.1429 48.6789 25.6606 48.6789 30C48.6789 34.3395 45.1612 37.8572 40.8218 37.8572V49.6429H42.8781C43.9639 49.6429 44.8424 48.7634 44.8424 47.6786V44.5739C46.2312 44.0224 47.5472 43.2753 48.7346 42.3632L51.5505 43.9524C52.4866 44.479 53.6645 44.1606 54.2073 43.2408L58.228 36.4367C58.4965 35.9821 58.5694 35.4392 58.4332 34.929C58.297 34.4197 57.9613 33.9862 57.501 33.7262Z" fill="#EE2A31"/>
</svg>
