<svg width="94" height="103" viewBox="0 0 94 103" fill="none" xmlns="http://www.w3.org/2000/svg">
<path fill-rule="evenodd" clip-rule="evenodd" d="M31.0867 35.1402C38.9041 26.9043 50.8821 32.2897 60.7796 34.0991C68.5221 35.5145 75.9952 37.6821 79.9959 44.0814C84.2709 50.9195 86.2922 59.965 82.1596 68.2974C78.1884 76.3042 68.9216 79.2121 60.7882 82.8084C52.0002 86.6941 41.9121 93.7226 34.8633 89.2101C27.8608 84.7273 32.6382 73.1948 32.0235 64.3941C31.3127 54.2179 23.293 43.3509 31.0867 35.1402Z" fill="#DDECFF"/>
<path d="M50.7589 57.2291C50.3598 57.2291 49.9791 57.3113 49.6336 57.4583L44.9997 52.4732C44.7731 52.2297 44.4554 52.0907 44.1234 52.0907H30.4574C30.443 52.0907 30.4295 52.0947 30.4151 52.0947L30.4031 41.9593C30.4215 41.9601 30.4383 41.9649 30.4574 41.9649H42.3771L46.3948 46.2878C46.3278 46.521 46.2799 46.7614 46.2799 47.0162C46.2799 48.4665 47.4531 49.6421 48.9009 49.6421C50.3511 49.6421 51.5259 48.4665 51.5259 47.0162C51.5259 45.5675 50.3511 44.3911 48.9009 44.3911C48.6 44.3911 48.3151 44.4526 48.0461 44.546L43.7754 39.9515C43.5488 39.7079 43.2311 39.569 42.8983 39.569H30.4574C30.4383 39.569 30.4199 39.5738 30.4007 39.5746L30.392 32.1601C30.5755 32.2743 30.7902 32.343 31.0225 32.343H42.3612C42.7866 33.1176 43.5999 33.6479 44.5448 33.6479C45.9247 33.6479 47.0445 32.5274 47.0445 31.145C47.0445 29.7634 45.9247 28.6429 44.5448 28.6429C43.5999 28.6429 42.7874 29.174 42.362 29.9471H31.0217C30.7886 29.9471 30.5723 30.0165 30.3888 30.1315L30.38 23.2186C30.4063 23.2202 30.4303 23.2266 30.4566 23.2266H42.8975C43.2303 23.2266 43.5472 23.0884 43.7746 22.844L48.2369 18.0427C48.45 18.0986 48.6694 18.1385 48.9009 18.1385C50.3511 18.1385 51.5259 16.9629 51.5259 15.5134C51.5259 14.0631 50.3511 12.8875 48.9009 12.8875C47.4531 12.8875 46.2799 14.0631 46.2799 15.5134C46.2799 15.8408 46.3469 16.1515 46.4563 16.4406L42.3771 20.8307H30.4574C30.4303 20.8307 30.4047 20.8371 30.3776 20.8387L30.3656 10.7935C30.467 10.8214 30.5715 10.8414 30.6817 10.8414H44.3485C44.6813 10.8414 44.9981 10.7033 45.2248 10.4589L49.8626 5.46902C50.2433 5.65511 50.6647 5.76851 51.1164 5.76851C52.7095 5.76851 54 4.47633 54 2.88466C54 1.29139 52.7095 0 51.1164 0C49.5258 0 48.2377 1.29139 48.2377 2.88466C48.2377 3.13063 48.2776 3.36543 48.3358 3.59384L43.8273 8.44472H30.6817C30.5707 8.44472 30.4654 8.46469 30.3632 8.49344L30.3544 1.24666H28.4741C26.6504 1.24666 25.1739 2.72493 25.1739 4.549V11.0091L25.138 11.2839C23.1922 11.7982 21.4412 12.5617 19.758 13.5767L19.4834 13.3459L14.9342 8.79293C13.6461 7.50234 11.5558 7.50234 10.2653 8.79293L7.54053 11.5203C6.25238 12.8092 6.25238 14.9009 7.54292 16.1914L12.1065 20.7572L12.3699 21.0942C11.4129 22.7458 10.6731 24.5387 10.1894 26.4363H9.08726H3.30098C1.4781 26.4363 0 27.9145 0 29.741V33.5944C0 35.4201 1.4781 36.8967 3.30098 36.8967H8.65548L10.1974 36.9303C10.6843 38.8326 11.4305 40.6264 12.3922 42.2819L11.7553 42.924L7.54132 47.1424C6.25158 48.4338 6.25158 50.5238 7.54132 51.8144L10.2653 54.5409C11.555 55.8323 13.6453 55.8323 14.9334 54.5409L18.8282 50.6436L19.6303 49.6788C21.3326 50.7226 23.1962 51.5301 25.1707 52.0588L25.1715 54.0969V58.7872C25.1715 60.6089 26.6488 62.0904 28.4717 62.0872L30.4255 62.0888L30.4167 54.485C30.4303 54.485 30.4422 54.489 30.4558 54.489H43.6015L48.0254 59.2488C47.9384 59.5244 47.8785 59.8119 47.8785 60.1153C47.8785 61.7086 49.1675 63 50.7573 63C52.3503 63 53.6409 61.7086 53.6409 60.1153C53.6424 58.5205 52.3519 57.2291 50.7589 57.2291ZM27.4326 42.9224C21.2185 42.9224 16.1808 37.8807 16.1808 31.6649C16.1808 25.4468 21.2185 20.405 27.4326 20.405V42.9224Z" fill="#1A73E8"/>
</svg>
