<svg width="95" height="91" viewBox="0 0 95 91" fill="none" xmlns="http://www.w3.org/2000/svg">
<path fill-rule="evenodd" clip-rule="evenodd" d="M32.0867 23.1402C39.9041 14.9043 51.8821 20.2897 61.7796 22.0991C69.5221 23.5145 76.9952 25.6821 80.9959 32.0814C85.2709 38.9195 87.2922 47.965 83.1596 56.2974C79.1884 64.3042 69.9216 67.2121 61.7882 70.8084C53.0002 74.6941 42.9121 81.7226 35.8633 77.2101C28.8608 72.7273 33.6382 61.1948 33.0235 52.3941C32.3127 42.2179 24.293 31.3509 32.0867 23.1402Z" fill="#FFD8D9"/>
<path d="M23.8569 18.1235C23.7135 17.9666 23.5413 17.8402 23.3506 17.7519C23.16 17.6637 22.9544 17.615 22.7456 17.6088C22.5368 17.6026 22.3288 17.6389 22.1336 17.7157C21.9383 17.7925 21.7597 17.9083 21.6078 18.0563L16.4475 23.0874C16.3412 23.191 16.2567 23.316 16.1989 23.4546C16.1412 23.5932 16.1115 23.7425 16.1118 23.8934C16.1121 24.0443 16.1423 24.1935 16.2005 24.3319C16.2587 24.4703 16.3438 24.595 16.4504 24.6981L21.6125 29.6934C21.7649 29.8409 21.944 29.956 22.1395 30.032C22.335 30.1081 22.543 30.1436 22.7518 30.1366C22.9606 30.1296 23.166 30.0802 23.3563 29.9913C23.5466 29.9023 23.7181 29.7755 23.8609 29.6181C24.1493 29.3003 24.3038 28.8772 24.2901 28.4418C24.2764 28.0065 24.0959 27.5946 23.7881 27.2967L20.2637 23.8854L23.7922 20.4451C24.0989 20.146 24.278 19.7335 24.2901 19.2981C24.3023 18.8627 24.1464 18.4402 23.8569 18.1235Z" fill="#EE2A31"/>
<path d="M42.3935 18.0566C42.2416 17.9085 42.063 17.7927 41.8678 17.7159C41.6726 17.639 41.4647 17.6027 41.2559 17.6088C41.047 17.615 40.8414 17.6635 40.6508 17.7517C40.4602 17.8399 40.2882 17.966 40.1448 18.1228C40.0013 18.2796 39.8892 18.4641 39.8148 18.6656C39.7404 18.8672 39.7052 19.0819 39.7111 19.2975C39.7232 19.7329 39.9022 20.1456 40.209 20.4447L43.7365 23.8855L40.2131 27.2966C39.9054 27.5945 39.7249 28.0065 39.7113 28.4419C39.6977 28.8772 39.8521 29.3003 40.1407 29.6181L40.1414 29.6189C40.2842 29.7763 40.4557 29.9031 40.6461 29.992C40.8364 30.0809 41.0418 30.1303 41.2506 30.1373C41.4594 30.1442 41.6675 30.1086 41.863 30.0326C42.0585 29.9565 42.2375 29.8414 42.3899 29.6938L47.5501 24.6982C47.6567 24.595 47.7417 24.4704 47.7999 24.3321C47.8581 24.1937 47.8883 24.0445 47.8885 23.8936C47.8888 23.7428 47.8591 23.5935 47.8014 23.4549C47.7437 23.3163 47.6591 23.1914 47.5529 23.0878L42.3935 18.0566Z" fill="#EE2A31"/>
<path d="M34.7156 15.9502C34.3178 15.8049 33.8804 15.8288 33.4996 16.0165C33.1188 16.2043 32.8258 16.5405 32.6851 16.9512L28.3172 29.6986C28.2475 29.902 28.2173 30.1176 28.2283 30.3331C28.2393 30.5485 28.2913 30.7597 28.3813 30.9544C28.4713 31.1491 28.5976 31.3236 28.7529 31.468C28.9083 31.6123 29.0896 31.7236 29.2866 31.7956C29.4836 31.8676 29.6924 31.8988 29.9011 31.8874C30.1098 31.8761 30.3143 31.8224 30.5028 31.7294C30.6914 31.6365 30.8604 31.5061 31.0002 31.3457C31.14 31.1853 31.2478 30.9981 31.3175 30.7946L35.6854 18.0474C35.7551 17.8439 35.7853 17.6283 35.7743 17.4128C35.7633 17.1973 35.7113 16.9861 35.6213 16.7914C35.5312 16.5966 35.4049 16.4221 35.2495 16.2777C35.0941 16.1334 34.9127 16.0221 34.7156 15.9502Z" fill="#EE2A31"/>
<path d="M60.9555 0H3.04463C2.23689 0.00436965 1.46357 0.338259 0.893248 0.928882C0.322926 1.51951 0.0018473 2.31897 3.1858e-06 3.15301V48.2633C-0.00116495 49.0982 0.318948 49.8995 0.889923 50.4908C1.4609 51.0821 2.23597 51.4149 3.04463 51.4162H25.9019V57.7036H21.3304C20.5217 57.7049 19.7467 58.0377 19.1757 58.629C18.6047 59.2203 18.2846 60.0216 18.2858 60.8565V64.0002H45.7145V60.8565C45.7156 60.0216 45.3955 59.2203 44.8245 58.629C44.2536 58.0378 43.4785 57.7049 42.6698 57.7036H38.0984V51.4162H60.9555C61.7642 51.415 62.5393 51.0821 63.1103 50.4908C63.6813 49.8995 64.0014 49.0983 64.0002 48.2633V3.15301C64.0008 2.73955 63.9226 2.33002 63.7699 1.9478C63.6172 1.56559 63.3931 1.21817 63.1103 0.925382C62.8276 0.632596 62.4918 0.400179 62.1221 0.241402C61.7523 0.0826241 61.356 0.000595645 60.9555 0ZM59.4288 42.2386H4.57149V5.50747H59.4288V42.2386Z" fill="#EE2A31"/>
</svg>
