<svg width="101" height="104" viewBox="0 0 101 104" fill="none" xmlns="http://www.w3.org/2000/svg">
<path fill-rule="evenodd" clip-rule="evenodd" d="M38.0632 35.5303C45.8807 27.2944 57.8587 32.6798 67.7561 34.4892C75.4987 35.9046 82.9718 38.0722 86.9724 44.4715C91.2474 51.3096 93.2688 60.3552 89.1362 68.6875C85.165 76.6944 75.8982 79.6022 67.7648 83.1985C58.9768 87.0843 48.8886 94.1127 41.8398 89.6003C34.8374 85.1175 39.6148 73.585 39.0001 64.7842C38.2893 54.6081 30.2695 43.7411 38.0632 35.5303Z" fill="#FBEFD6"/>
<path d="M55.6787 29.3785C56.2902 22.5676 50.6071 16.1748 43.8805 16.0938C40.0759 3.10623 23.7621 2.08867 18.5766 14.5195C10.6478 16.438 6.07508 22.105 7.30227 28.7795C4.09268 30.3635 3.11144 33.8435 3.58604 36.5292C3.81462 38.0426 4.57258 39.4214 5.72079 40.4126C6.869 41.4038 8.33041 41.9408 9.83678 41.9251H21.9109V45.7629C21.9105 46.0873 21.7836 46.3983 21.5579 46.6277C21.3322 46.8571 21.0262 46.9861 20.7071 46.9865H17.9417C17.7816 46.2445 17.3574 45.5888 16.7506 45.1454C16.1439 44.7019 15.3973 44.5019 14.6543 44.5837C13.9113 44.6656 13.2242 45.0236 12.7251 45.5889C12.2259 46.1542 11.9498 46.8871 11.9498 47.6467C11.9498 48.4063 12.2259 49.1391 12.7251 49.7044C13.2242 50.2698 13.9113 50.6277 14.6543 50.7096C15.3973 50.7914 16.1439 50.5914 16.7506 50.148C17.3574 49.7045 17.7816 49.0488 17.9417 48.3069H20.7071C21.3706 48.306 22.0068 48.0378 22.476 47.5609C22.9452 47.084 23.2092 46.4374 23.21 45.7629V41.9251H30.3549V48.1598C29.6249 48.3226 28.9798 48.7538 28.5435 49.3705C28.1071 49.9872 27.9104 50.746 27.9909 51.5012C28.0714 52.2564 28.4236 52.9547 28.9799 53.462C29.5361 53.9694 30.2571 54.25 31.0044 54.25C31.7518 54.25 32.4728 53.9694 33.029 53.462C33.5852 52.9547 33.9374 52.2564 34.018 51.5012C34.0985 50.746 33.9017 49.9872 33.4654 49.3705C33.0291 48.7538 32.384 48.3226 31.654 48.1598V41.9251H38.7989V45.7629C38.7997 46.4374 39.0637 47.084 39.5329 47.5609C40.0021 48.0378 40.6383 48.306 41.3018 48.3069H44.0671C44.2273 49.0488 44.6515 49.7045 45.2582 50.148C45.865 50.5914 46.6116 50.7914 47.3546 50.7096C48.0976 50.6277 48.7846 50.2698 49.2838 49.7044C49.783 49.1391 50.0591 48.4063 50.0591 47.6467C50.0591 46.8871 49.783 46.1542 49.2838 45.5889C48.7846 45.0236 48.0976 44.6656 47.3546 44.5837C46.6116 44.5019 45.865 44.7019 45.2582 45.1454C44.6515 45.5888 44.2273 46.2445 44.0671 46.9865H41.3018C40.9827 46.9861 40.6767 46.8571 40.451 46.6277C40.2253 46.3983 40.0984 46.0873 40.098 45.7629V41.9251H52.0872C55.7065 42.1082 58.5012 38.7082 58.5272 35.1159C58.4519 32.5505 57.4451 30.5312 55.6787 29.3785ZM13.5188 29.9141C13.4372 30.0681 13.2987 30.1829 13.1339 30.2332C12.9691 30.2835 12.7914 30.2653 12.6398 30.1826C11.9766 29.8194 11.2479 29.5967 10.4977 29.5279C9.74745 29.459 8.99127 29.5455 8.27485 29.7821C8.27918 29.7777 8.28784 29.7777 8.29217 29.7733C8.44284 29.7136 8.56602 29.5987 8.63737 29.4512C8.70873 29.3037 8.72307 29.1344 8.67757 28.9767C8.62349 28.7651 8.58156 28.5506 8.55199 28.3341C10.1505 28.0024 11.8127 28.2451 13.2547 29.0207C13.4062 29.1036 13.5191 29.2443 13.5686 29.4118C13.6181 29.5794 13.6002 29.76 13.5188 29.9141ZM27.2414 16.5872C27.1576 16.7401 27.0174 16.8529 26.8517 16.9007C26.6861 16.9486 26.5085 16.9276 26.3581 16.8425C24.1718 15.6518 21.651 15.2559 19.2131 15.7202C19.3127 15.6937 19.4047 15.6436 19.4815 15.574C19.5582 15.5044 19.6177 15.4172 19.6548 15.3196C19.7977 14.9587 19.9493 14.6022 20.1181 14.2589C22.4972 14.042 24.8866 14.5393 26.9903 15.6893C27.1407 15.7746 27.2517 15.9171 27.2988 16.0854C27.3458 16.2538 27.3252 16.4343 27.2414 16.5872ZM34.6072 22.0623C34.5596 22.1373 34.4975 22.2016 34.4246 22.2515C34.3518 22.3013 34.2698 22.3357 34.1836 22.3524C34.0973 22.3692 34.0087 22.368 33.9229 22.3489C33.8371 22.3299 33.7561 22.2933 33.6846 22.2415C33.6131 22.1897 33.5527 22.1237 33.507 22.0475C33.4613 21.9713 33.4313 21.8864 33.4188 21.7981C33.4063 21.7098 33.4115 21.6198 33.4342 21.5336C33.4568 21.4474 33.4964 21.3667 33.5506 21.2965C34.5739 19.8104 35.9101 18.5748 37.4621 17.6795C39.0142 16.7842 40.743 16.2517 42.523 16.1207C42.6096 16.3847 42.6875 16.6488 42.7611 16.9217C42.7961 17.0574 42.873 17.1782 42.9806 17.2662C43.0882 17.3541 43.2207 17.4046 43.3587 17.4102C41.6397 17.4147 39.947 17.8398 38.4238 18.6496C36.9005 19.4593 35.5914 20.6299 34.6072 22.0623ZM51.7897 29.4916C51.6175 29.4916 51.4523 29.422 51.3304 29.2982C51.2086 29.1744 51.1402 29.0065 51.1402 28.8314C51.1402 28.6563 51.2086 28.4884 51.3304 28.3646C51.4523 28.2408 51.6175 28.1712 51.7897 28.1712C52.6884 28.1688 53.5787 28.3468 54.4095 28.695C54.4052 29.0163 54.3836 29.342 54.3489 29.6632C54.3354 29.7872 54.3567 29.9125 54.4103 30.0247C54.464 30.1368 54.5478 30.2313 54.652 30.297C53.7889 29.7664 52.7985 29.4877 51.7897 29.4916Z" fill="#FFAC00"/>
</svg>
