<svg width="95" height="97" viewBox="0 0 95 97" fill="none" xmlns="http://www.w3.org/2000/svg">
<path fill-rule="evenodd" clip-rule="evenodd" d="M32.0867 29.1402C39.9041 20.9043 51.8821 26.2897 61.7796 28.0991C69.5221 29.5145 76.9952 31.6821 80.9959 38.0814C85.2709 44.9195 87.2922 53.965 83.1596 62.2974C79.1884 70.3042 69.9216 73.2121 61.7882 76.8084C53.0002 80.6941 42.9121 87.7226 35.8633 83.2101C28.8608 78.7273 33.6382 67.1948 33.0235 58.3941C32.3127 48.2179 24.293 37.3509 32.0867 29.1402Z" fill="#FBEFD6"/>
<path d="M44.1418 27.5933L38.3396 27.5574C37.295 27.551 36.4497 26.7057 36.4432 25.661L36.4073 19.8589C36.404 19.3487 36.6055 18.8584 36.9662 18.4977L37.844 17.6199C35.8053 17.6903 33.8253 18.5163 32.3343 20.0072C30.0478 22.2937 29.3251 25.7311 30.4931 28.7645C30.7641 29.4685 30.5949 30.2662 30.0616 30.7995L19.1462 41.7151C18.2807 42.5806 18.2807 43.9888 19.1462 44.8543C20.0117 45.7197 21.4201 45.7197 22.2855 44.8543L33.2009 33.9388C33.7342 33.4054 34.5319 33.2363 35.2359 33.5073C38.2696 34.6755 41.707 33.9526 43.9934 31.6662C45.4842 30.1754 46.3102 28.1949 46.3808 26.1565L45.503 27.0343C45.1421 27.3952 44.6501 27.594 44.1418 27.5933Z" fill="#FFAC00"/>
<path d="M64 37.2387V26.8294L56.6076 25.0222C56.0681 23.1159 55.3117 21.3009 54.3692 19.6036L58.3318 13.0768L50.9714 5.71638L44.4628 9.66797C42.7683 8.72027 40.9555 7.95884 39.0511 7.41361L37.2387 0H26.8294L25.0222 7.39241C23.1159 7.9319 21.3009 8.68827 19.6036 9.63077L13.0768 5.66824L5.71638 13.0287L9.66797 19.5372C8.72027 21.2319 7.95884 23.0445 7.41361 24.9489L0 26.7613V37.1705L7.39241 38.9776C7.9319 40.884 8.68827 42.6989 9.63077 44.3963L5.66824 50.9231L13.0287 58.2835L19.5372 54.3319C21.2317 55.2796 23.0445 56.041 24.9489 56.5863L26.7613 64H37.1705L38.9776 56.6076C40.884 56.0681 42.6989 55.3117 44.3963 54.3692L50.9231 58.3319L58.2835 50.9715L54.3319 44.4629C55.2796 42.7684 56.041 40.9556 56.5863 39.0512L64 37.2387ZM46.6914 34.365C43.6402 37.4161 39.1949 38.5693 35.0735 37.463L24.9835 47.553C19.479 53.0575 10.9424 44.5208 16.4468 39.0162L26.5366 28.9262C25.4303 24.8045 26.5837 20.3594 29.6349 17.3083C32.9872 13.956 38.022 12.8948 42.4622 14.6043C43.8158 15.4076 44.0369 16.451 43.1259 17.7344L40.228 20.6323L40.2474 23.7523L43.3674 23.7718L46.2653 20.8738C47.5487 19.9628 48.5921 20.1839 49.3954 21.5375C51.1051 25.9777 50.0436 31.0127 46.6914 34.365Z" fill="#FFAC00"/>
</svg>
