<svg width="90" height="95" viewBox="0 0 90 95" fill="none" xmlns="http://www.w3.org/2000/svg">
<path fill-rule="evenodd" clip-rule="evenodd" d="M27.0867 27.1402C34.9041 18.9043 46.8821 24.2897 56.7796 26.0991C64.5221 27.5145 71.9952 29.6821 75.9959 36.0814C80.2709 42.9195 82.2922 51.965 78.1596 60.2974C74.1884 68.3042 64.9216 71.2121 56.7882 74.8084C48.0002 78.6941 37.9121 85.7226 30.8633 81.2101C23.8608 76.7273 28.6382 65.1948 28.0235 56.3941C27.3127 46.2179 19.293 35.3509 27.0867 27.1402Z" fill="#D5FCF0"/>
<path d="M10.0651 20.196C7.77322 20.52 6 22.488 6 24.864C6 27.48 8.1351 29.604 10.7527 29.604C13.3824 29.604 15.5175 27.48 15.5175 24.864C15.5175 22.86 14.2509 21.144 12.4777 20.46C14.1423 13.548 19.6188 8.10001 26.5669 6.44401C27.2666 8.20801 28.9916 9.45601 31.006 9.45601C33.0205 9.45601 34.7334 8.20801 35.4331 6.44401C42.3932 8.10001 47.8577 13.548 49.5223 20.46C47.7491 21.156 46.4946 22.86 46.4946 24.864C46.4946 27.48 48.6297 29.604 51.2473 29.604C53.877 29.604 56 27.48 56 24.864C56 22.488 54.2388 20.52 51.9349 20.196C50.5476 13.992 46.4222 8.79601 40.8975 5.92801H54.7937C55.4692 5.92801 56 5.38801 56 4.728C56 4.068 55.4692 3.528 54.7937 3.528H35.5899C35.0712 1.5 33.2014 0 31.006 0C28.7986 0 26.9409 1.5 26.4101 3.528H7.20627C6.54282 3.528 6 4.068 6 4.728C6 5.38801 6.54282 5.92801 7.20627 5.92801H21.1146C15.5899 8.79601 11.4644 13.992 10.0651 20.196Z" fill="#16A87A"/>
<path d="M24.082 58.8001C24.082 59.4601 24.6249 60.0001 25.2883 60.0001H36.7117C37.3872 60.0001 37.918 59.4601 37.918 58.8001V46.2241H24.082V58.8001Z" fill="#16A87A"/>
<path d="M40.8978 34.2118L32.2126 15.1558V31.7638H32.5624C33.2259 31.7638 33.7687 32.3038 33.7687 32.9638C33.7687 33.6238 33.2259 34.1638 32.5624 34.1638H29.4382C28.7747 34.1638 28.2319 33.6238 28.2319 32.9638C28.2319 32.3038 28.7747 31.7638 29.4382 31.7638H29.8V15.1678L21.1149 34.2118C20.946 34.5718 20.9701 34.9798 21.1631 35.3158L25.8314 43.2358C26.0485 43.6078 26.4345 43.8238 26.8688 43.8238H35.1318C35.566 43.8238 35.9641 43.6078 36.1812 43.2358L40.8374 35.3158C41.0304 34.9798 41.0546 34.5718 40.8978 34.2118Z" fill="#16A87A"/>
</svg>
