<svg width="89" height="88" viewBox="0 0 89 88" fill="none" xmlns="http://www.w3.org/2000/svg">
<path fill-rule="evenodd" clip-rule="evenodd" d="M37.0529 79.6426C25.721 78.2035 14.1694 73.209 8.31267 64.3966C2.7132 55.9712 7.13906 46.2919 8.67042 36.9361C10.2775 27.1177 8.5709 15.5442 17.297 9.50687C26.3645 3.23328 39.8258 4.21999 51.2824 7.454C61.7407 10.4062 69.7721 17.5889 75.4544 25.9238C80.7387 33.675 82.8851 42.5598 81.0693 51.146C79.2759 59.6258 73.5691 66.648 65.7749 71.694C57.4613 77.0763 47.619 80.9844 37.0529 79.6426Z" fill="#16A87A"/>
<path d="M58.1147 46.1209L53.1333 51.0601C52.8378 51.3531 52.4508 51.4995 52.0637 51.4995C51.6767 51.4995 51.2896 51.3531 50.9942 51.0601C50.4033 50.4742 50.4033 49.525 50.9942 48.9391L55.9756 44L50.9942 39.0608C50.4033 38.4749 50.4033 37.5257 50.9942 36.9398C51.5851 36.3539 52.5424 36.3539 53.1333 36.9398L58.1147 41.879C59.2951 43.0486 59.2951 44.9513 58.1147 46.1209ZM47.9406 32.0585C47.1429 31.83 46.3008 32.2914 46.0704 33.0882L40.0194 54.087C39.7904 54.8839 40.2557 55.7136 41.0594 55.9414C41.1982 55.981 41.3371 56 41.476 56C42.1334 56 42.7391 55.5701 42.9296 54.9117L48.9806 33.9129C49.2096 33.116 48.7443 32.2863 47.9406 32.0585ZM38.0058 36.9398C37.4149 36.3539 36.4576 36.3539 35.8667 36.9398L30.8853 41.879C29.7049 43.0486 29.7049 44.9513 30.8853 46.1209L35.8667 51.0601C36.1622 51.353 36.5492 51.4995 36.9363 51.4995C37.3233 51.4995 37.7104 51.353 38.0058 51.0601C38.5967 50.4742 38.5967 49.525 38.0058 48.9391L33.0244 43.9999L38.0058 39.0608C38.5967 38.4749 38.5967 37.5257 38.0058 36.9398Z" fill="white"/>
</svg>
