<svg width="89" height="88" viewBox="0 0 89 88" fill="none" xmlns="http://www.w3.org/2000/svg">
<path fill-rule="evenodd" clip-rule="evenodd" d="M37.0529 79.6426C25.721 78.2035 14.1694 73.209 8.31267 64.3966C2.7132 55.9712 7.13906 46.2919 8.67042 36.9361C10.2775 27.1177 8.5709 15.5442 17.297 9.50687C26.3645 3.23328 39.8258 4.21999 51.2824 7.454C61.7407 10.4062 69.7721 17.5889 75.4544 25.9238C80.7387 33.675 82.8851 42.5598 81.0693 51.146C79.2759 59.6258 73.5691 66.648 65.7749 71.694C57.4613 77.0763 47.619 80.9844 37.0529 79.6426Z" fill="#1A73E8"/>
<path d="M43.1733 46.5033L46.2243 49.5002L52.0623 43.7655L49.0114 40.7686L43.1733 46.5033Z" fill="white"/>
<path d="M54.4315 38.4661L54.4181 38.4529C53.5774 37.6271 52.2088 37.6278 51.3673 38.4544L50.1909 39.6099L53.2419 42.6069L54.4314 41.4384C55.2082 40.5552 55.1709 39.2033 54.4315 38.4661Z" fill="white"/>
<path d="M46.4169 31H37.6431V33.7902H46.4169V31Z" fill="white"/>
<path d="M44.6772 50.2979L42.3553 48.0171L41.1943 51.4384L44.6772 50.2979Z" fill="white"/>
<path d="M46.804 51.2479C46.7141 51.3353 46.6034 51.4028 46.4838 51.4417L40.1383 53.5195C39.5018 53.7278 38.88 53.1027 39.0938 52.4728L41.2089 46.2396C41.2451 46.1336 41.3142 45.9813 41.4118 45.9166L50.2028 37.2812C50.424 37.0639 50.6701 36.8747 50.9342 36.7189L50.9967 36.6821V32.9654H48.0747V34.6142C48.0747 35.0688 47.7029 35.4386 47.2459 35.4386H36.8144C36.3575 35.4386 35.9857 35.0688 35.9857 34.6142V32.9653H33V56.9995H50.9968V47.1296L46.8097 51.2427L46.804 51.2479Z" fill="white"/>
</svg>
