<svg width="89" height="88" viewBox="0 0 89 88" fill="none" xmlns="http://www.w3.org/2000/svg">
<path fill-rule="evenodd" clip-rule="evenodd" d="M37.0529 79.6426C25.721 78.2035 14.1694 73.209 8.31267 64.3966C2.7132 55.9712 7.13906 46.2919 8.67042 36.9361C10.2775 27.1177 8.5709 15.5442 17.297 9.50687C26.3645 3.23328 39.8258 4.21999 51.2824 7.454C61.7407 10.4062 69.7721 17.5889 75.4544 25.9238C80.7387 33.675 82.8851 42.5598 81.0693 51.146C79.2759 59.6258 73.5691 66.648 65.7749 71.694C57.4613 77.0763 47.619 80.9844 37.0529 79.6426Z" fill="#FFAC00"/>
<path d="M32.881 53.5949C32.881 51.0277 33.8036 48.6734 35.3452 46.8279C34.7261 46.6267 34.0706 46.5203 33.3908 46.5203C29.8706 46.5203 27.0059 49.3123 27.0059 52.7431C26.9367 53.4541 27.4854 54.0859 28.2198 54.08H32.8932C32.8737 53.9356 32.8834 53.7404 32.881 53.5949Z" fill="white"/>
<path d="M33.3908 45.7749C35.1994 45.7749 36.7411 44.6865 37.3965 43.1485C36.4376 41.8471 35.8792 40.2619 35.8792 38.5583C35.8792 38.4163 35.8792 38.2743 35.9035 38.1324C35.1873 37.6473 34.3255 37.3516 33.3908 37.3516C31.0116 37.3516 29.0815 39.2444 29.0815 41.5632C29.0815 43.882 31.0116 45.7749 33.3908 45.7749Z" fill="white"/>
<path d="M54.6091 46.5203C53.9293 46.5203 53.2739 46.6267 52.6548 46.8279C54.1964 48.6734 55.1189 51.0277 55.1189 53.5949C55.1165 53.7416 55.1262 53.9356 55.1068 54.08H59.7802C60.5146 54.0859 61.0633 53.4541 60.9941 52.7431C60.9941 49.3123 58.1293 46.5203 54.6091 46.5203Z" fill="white"/>
<path d="M54.6093 45.7749C56.9885 45.7749 58.9185 43.882 58.9185 41.5632C58.9185 39.2444 56.9885 37.3516 54.6093 37.3516C53.6746 37.3516 52.8128 37.6473 52.0966 38.1324C52.1209 38.2743 52.1209 38.4163 52.1209 38.5583C52.1209 40.2619 51.5625 41.8471 50.6035 43.1485C51.259 44.6865 52.8006 45.7749 54.6093 45.7749Z" fill="white"/>
<path d="M43.9998 45.1272C39.2099 45.1272 35.3122 48.926 35.3122 53.5943C35.2248 54.3183 35.7528 55.0057 36.526 54.9997H51.4724C52.2469 55.0057 52.7737 54.3195 52.6863 53.5943C52.6863 48.926 48.7898 45.1272 43.9998 45.1272Z" fill="white"/>
<path d="M44.0004 44.1053C47.1419 44.1053 49.6971 41.615 49.6971 38.5532C49.6971 35.4915 47.1419 33 44.0004 33C40.8589 33 38.3037 35.4903 38.3037 38.5532C38.3037 41.615 40.8589 44.1053 44.0004 44.1053Z" fill="white"/>
</svg>
