<svg width="180" height="52" viewBox="0 0 180 52" fill="none" xmlns="http://www.w3.org/2000/svg">
<path d="M24.7595 0.955267L0.697156 25.1566C0.310861 25.5451 0.30913 26.1721 0.693272 26.5628L24.7556 51.033C25.1444 51.4283 25.7806 51.4319 26.1737 51.041L50.7829 26.5708C51.1776 26.1783 51.1759 25.539 50.779 25.1487L26.1698 0.947344C25.7775 0.561595 25.1473 0.565135 24.7595 0.955267Z" fill="#EE2A31"/>
<path d="M34.8357 26.1421H16.0843C15.1834 26.1421 14.7419 27.24 15.392 27.8637L24.7677 36.8591C25.1546 37.2303 25.7654 37.2303 26.1523 36.8591L35.528 27.8637C36.1781 27.24 35.7366 26.1421 34.8357 26.1421Z" fill="white"/>
<path d="M66.3182 36.2486C65.1581 36.2486 64.1075 35.9503 63.1662 35.3537C62.2315 34.7505 61.4891 33.8655 60.9389 32.6989C60.3954 31.5256 60.1236 30.0871 60.1236 28.3835C60.1236 26.6335 60.4053 25.1785 60.9688 24.0185C61.5322 22.8518 62.2813 21.9801 63.2159 21.4034C64.1572 20.8201 65.188 20.5284 66.3082 20.5284C67.1634 20.5284 67.8759 20.6742 68.446 20.9659C69.0227 21.2509 69.4867 21.6089 69.8381 22.0398C70.196 22.464 70.4678 22.8816 70.6534 23.2926H70.7827V15.6364H75.0085V36H70.8324V33.554H70.6534C70.4545 33.9782 70.1728 34.3991 69.8082 34.8168C69.4503 35.2277 68.983 35.5691 68.4062 35.8409C67.8362 36.1127 67.1402 36.2486 66.3182 36.2486ZM67.6605 32.8778C68.3433 32.8778 68.92 32.6922 69.3906 32.321C69.8679 31.9432 70.2325 31.4162 70.4844 30.7401C70.7429 30.0639 70.8722 29.2718 70.8722 28.3636C70.8722 27.4555 70.7462 26.6667 70.4943 25.9972C70.2424 25.3277 69.8778 24.8106 69.4006 24.446C68.9233 24.0814 68.3433 23.8991 67.6605 23.8991C66.9645 23.8991 66.3778 24.0881 65.9006 24.4659C65.4233 24.8437 65.062 25.3674 64.8168 26.0369C64.5715 26.7064 64.4489 27.482 64.4489 28.3636C64.4489 29.2519 64.5715 30.0374 64.8168 30.7202C65.0687 31.3963 65.4299 31.9266 65.9006 32.3111C66.3778 32.6889 66.9645 32.8778 67.6605 32.8778ZM85.4513 36.2983C83.8803 36.2983 82.5281 35.9801 81.3945 35.3438C80.2676 34.7008 79.3993 33.7926 78.7894 32.6193C78.1796 31.4394 77.8746 30.044 77.8746 28.4332C77.8746 26.8622 78.1796 25.4834 78.7894 24.2969C79.3993 23.1103 80.2577 22.1856 81.3647 21.5227C82.4783 20.8598 83.7842 20.5284 85.2823 20.5284C86.2899 20.5284 87.2279 20.6908 88.0962 21.0156C88.9712 21.3338 89.7335 21.8144 90.3832 22.4574C91.0394 23.1004 91.5498 23.9091 91.9144 24.8835C92.279 25.8513 92.4613 26.9848 92.4613 28.2841V29.4474H79.565V26.8224H88.4741C88.4741 26.2126 88.3415 25.6723 88.0763 25.2017C87.8112 24.7311 87.4433 24.3632 86.9727 24.098C86.5086 23.8262 85.9684 23.6903 85.3519 23.6903C84.7089 23.6903 84.1388 23.8395 83.6417 24.1378C83.1512 24.4295 82.7667 24.8239 82.4883 25.321C82.2099 25.8116 82.0674 26.3584 82.0607 26.9616V29.4574C82.0607 30.2131 82.1999 30.866 82.4783 31.4162C82.7634 31.9664 83.1644 32.3906 83.6815 32.6889C84.1985 32.9872 84.8117 33.1364 85.521 33.1364C85.9916 33.1364 86.4225 33.0701 86.8136 32.9375C87.2047 32.8049 87.5394 32.6061 87.8178 32.3409C88.0962 32.0758 88.3084 31.7509 88.4542 31.3665L92.3718 31.625C92.1729 32.5663 91.7653 33.3883 91.1488 34.0909C90.5389 34.7869 89.7501 35.3305 88.7823 35.7216C87.8211 36.1061 86.7108 36.2983 85.4513 36.2983ZM99.4613 15.6364V36H95.2255V15.6364H99.4613ZM109.755 36.2983C108.21 36.2983 106.875 35.9702 105.748 35.3139C104.628 34.651 103.763 33.7296 103.153 32.5497C102.543 31.3632 102.238 29.9877 102.238 28.4233C102.238 26.8456 102.543 25.4669 103.153 24.2869C103.763 23.1004 104.628 22.179 105.748 21.5227C106.875 20.8598 108.21 20.5284 109.755 20.5284C111.299 20.5284 112.632 20.8598 113.752 21.5227C114.879 22.179 115.747 23.1004 116.357 24.2869C116.967 25.4669 117.272 26.8456 117.272 28.4233C117.272 29.9877 116.967 31.3632 116.357 32.5497C115.747 33.7296 114.879 34.651 113.752 35.3139C112.632 35.9702 111.299 36.2983 109.755 36.2983ZM109.775 33.017C110.478 33.017 111.064 32.8182 111.535 32.4205C112.005 32.0161 112.36 31.4659 112.599 30.7699C112.844 30.0739 112.967 29.2817 112.967 28.3935C112.967 27.5052 112.844 26.7131 112.599 26.017C112.36 25.321 112.005 24.7708 111.535 24.3665C111.064 23.9621 110.478 23.7599 109.775 23.7599C109.066 23.7599 108.469 23.9621 107.985 24.3665C107.508 24.7708 107.147 25.321 106.901 26.017C106.663 26.7131 106.543 27.5052 106.543 28.3935C106.543 29.2817 106.663 30.0739 106.901 30.7699C107.147 31.4659 107.508 32.0161 107.985 32.4205C108.469 32.8182 109.066 33.017 109.775 33.017ZM126.907 42.0455C125.535 42.0455 124.358 41.8565 123.377 41.4787C122.403 41.1075 121.627 40.6004 121.05 39.9574C120.474 39.3144 120.099 38.5919 119.927 37.7898L123.844 37.2628C123.964 37.5677 124.153 37.8527 124.411 38.1179C124.67 38.383 125.011 38.5952 125.435 38.7543C125.866 38.92 126.39 39.0028 127.006 39.0028C127.928 39.0028 128.687 38.7775 129.283 38.3267C129.887 37.8826 130.188 37.1368 130.188 36.0895V33.2955H130.009C129.824 33.7197 129.545 34.1207 129.174 34.4986C128.803 34.8764 128.326 35.1847 127.742 35.4233C127.159 35.6619 126.463 35.7812 125.654 35.7812C124.507 35.7812 123.463 35.5161 122.522 34.9858C121.587 34.4489 120.842 33.6302 120.285 32.5298C119.735 31.4228 119.46 30.0241 119.46 28.3338C119.46 26.6037 119.741 25.1586 120.305 23.9986C120.868 22.8385 121.617 21.9702 122.552 21.3935C123.493 20.8168 124.524 20.5284 125.644 20.5284C126.499 20.5284 127.215 20.6742 127.792 20.9659C128.369 21.2509 128.833 21.6089 129.184 22.0398C129.542 22.464 129.817 22.8816 130.009 23.2926H130.168V20.7273H134.374V36.1491C134.374 37.4484 134.056 38.5355 133.42 39.4105C132.783 40.2855 131.902 40.9418 130.775 41.3793C129.655 41.8234 128.365 42.0455 126.907 42.0455ZM126.996 32.5994C127.679 32.5994 128.256 32.4304 128.727 32.0923C129.204 31.7476 129.568 31.2571 129.82 30.6207C130.079 29.9777 130.208 29.2088 130.208 28.3139C130.208 27.419 130.082 26.6435 129.83 25.9872C129.578 25.3243 129.214 24.8106 128.737 24.446C128.259 24.0814 127.679 23.8991 126.996 23.8991C126.3 23.8991 125.714 24.0881 125.237 24.4659C124.759 24.8371 124.398 25.3542 124.153 26.017C123.907 26.6799 123.785 27.4455 123.785 28.3139C123.785 29.1955 123.907 29.9579 124.153 30.6009C124.405 31.2372 124.766 31.7311 125.237 32.0824C125.714 32.4271 126.3 32.5994 126.996 32.5994ZM142.1 36.2884C141.126 36.2884 140.257 36.1193 139.495 35.7812C138.733 35.4366 138.129 34.9295 137.685 34.2599C137.248 33.5838 137.029 32.742 137.029 31.7344C137.029 30.8859 137.185 30.1733 137.496 29.5966C137.808 29.0199 138.232 28.5559 138.769 28.2045C139.306 27.8532 139.916 27.5881 140.599 27.4091C141.288 27.2301 142.011 27.1042 142.766 27.0312C143.655 26.9384 144.371 26.8523 144.914 26.7727C145.458 26.6866 145.852 26.5606 146.097 26.3949C146.343 26.2292 146.465 25.9839 146.465 25.6591V25.5994C146.465 24.9697 146.266 24.4825 145.869 24.1378C145.478 23.7931 144.921 23.6207 144.198 23.6207C143.436 23.6207 142.829 23.7898 142.379 24.1278C141.928 24.4593 141.629 24.8769 141.484 25.3807L137.566 25.0625C137.765 24.1345 138.156 23.3324 138.739 22.6562C139.323 21.9735 140.075 21.4498 140.996 21.0852C141.924 20.714 142.998 20.5284 144.218 20.5284C145.067 20.5284 145.879 20.6278 146.654 20.8267C147.436 21.0256 148.129 21.3338 148.732 21.7514C149.342 22.169 149.823 22.706 150.174 23.3622C150.525 24.0118 150.701 24.7907 150.701 25.6989V36H146.684V33.8821H146.565C146.319 34.3594 145.991 34.7803 145.58 35.1449C145.169 35.5028 144.675 35.7846 144.099 35.9901C143.522 36.1889 142.856 36.2884 142.1 36.2884ZM143.313 33.3651C143.936 33.3651 144.487 33.2424 144.964 32.9972C145.441 32.7453 145.816 32.4072 146.087 31.983C146.359 31.5587 146.495 31.0781 146.495 30.5412V28.9205C146.362 29.0066 146.18 29.0862 145.948 29.1591C145.723 29.2254 145.468 29.2884 145.183 29.348C144.897 29.401 144.612 29.4508 144.327 29.4972C144.042 29.5369 143.784 29.5734 143.552 29.6065C143.055 29.6795 142.621 29.7955 142.249 29.9545C141.878 30.1136 141.59 30.3291 141.384 30.6009C141.179 30.866 141.076 31.1974 141.076 31.5952C141.076 32.1719 141.285 32.6127 141.702 32.9176C142.127 33.2159 142.664 33.3651 143.313 33.3651ZM162.111 20.7273V23.9091H152.913V20.7273H162.111ZM155.001 17.0682H159.237V31.3068C159.237 31.6979 159.297 32.0028 159.416 32.2216C159.536 32.4337 159.701 32.5829 159.913 32.669C160.132 32.7552 160.384 32.7983 160.669 32.7983C160.868 32.7983 161.067 32.7817 161.266 32.7486C161.464 32.7088 161.617 32.679 161.723 32.6591L162.389 35.8111C162.177 35.8774 161.879 35.9536 161.494 36.0398C161.11 36.1326 160.643 36.1889 160.092 36.2088C159.071 36.2486 158.177 36.1127 157.408 35.8011C156.645 35.4896 156.052 35.0057 155.628 34.3494C155.204 33.6932 154.995 32.8646 155.001 31.8636V17.0682ZM171.666 36.2983C170.095 36.2983 168.743 35.9801 167.609 35.3438C166.482 34.7008 165.614 33.7926 165.004 32.6193C164.394 31.4394 164.089 30.044 164.089 28.4332C164.089 26.8622 164.394 25.4834 165.004 24.2969C165.614 23.1103 166.473 22.1856 167.58 21.5227C168.693 20.8598 169.999 20.5284 171.497 20.5284C172.505 20.5284 173.443 20.6908 174.311 21.0156C175.186 21.3338 175.948 21.8144 176.598 22.4574C177.254 23.1004 177.765 23.9091 178.129 24.8835C178.494 25.8513 178.676 26.9848 178.676 28.2841V29.4474H165.78V26.8224H174.689C174.689 26.2126 174.556 25.6723 174.291 25.2017C174.026 24.7311 173.658 24.3632 173.188 24.098C172.723 23.8262 172.183 23.6903 171.567 23.6903C170.924 23.6903 170.354 23.8395 169.857 24.1378C169.366 24.4295 168.982 24.8239 168.703 25.321C168.425 25.8116 168.282 26.3584 168.276 26.9616V29.4574C168.276 30.2131 168.415 30.866 168.693 31.4162C168.978 31.9664 169.379 32.3906 169.896 32.6889C170.413 32.9872 171.027 33.1364 171.736 33.1364C172.206 33.1364 172.637 33.0701 173.028 32.9375C173.42 32.8049 173.754 32.6061 174.033 32.3409C174.311 32.0758 174.523 31.7509 174.669 31.3665L178.587 31.625C178.388 32.5663 177.98 33.3883 177.364 34.0909C176.754 34.7869 175.965 35.3305 174.997 35.7216C174.036 36.1061 172.926 36.2983 171.666 36.2983Z" fill="#362466"/>
</svg>
