<svg width="153" height="48" viewBox="0 0 153 48" fill="none" xmlns="http://www.w3.org/2000/svg">
<g clip-path="url(#clip0_784_31)">
<path d="M40.0002 9.45846C40.0106 10.8912 39.4558 12.2704 38.456 13.2973C37.4562 14.3242 36.0919 14.9162 34.6586 14.945C29.3668 15.068 25.6188 18.8088 25.4658 24.1174C25.3793 27.1699 23.1368 29.4476 19.8413 29.4709C15.4263 29.5042 10.958 33.255 10.9563 38.6018C10.9563 41.4398 8.77543 43.6743 5.93409 43.9786C3.34395 44.2463 0.81369 42.3842 0.149935 39.7141C-0.613633 36.6333 1.63049 33.4495 4.80787 33.0638C6.03723 32.9158 7.30319 32.8343 8.46767 32.4536C12.0959 31.2665 14.4731 27.9081 14.538 24.0775C14.5978 20.8505 16.8669 18.591 20.1242 18.4996C25.163 18.3649 28.921 14.5709 29.0275 9.52164C29.0857 6.69525 31.1086 4.39923 33.8517 4.04842C36.5334 3.70095 39.0703 5.44167 39.8122 8.15666C39.9025 8.58616 39.9653 9.02097 40.0002 9.45846Z" fill="url(#paint0_linear_784_31)"/>
<path d="M14.5029 38.4804C14.5086 37.1367 15.0092 35.8422 15.9092 34.844C16.8092 33.8458 18.0455 33.2138 19.3821 33.0687C20.3969 32.954 21.4399 32.9207 22.4148 32.6481C26.394 31.5342 28.9475 28.1425 29.024 24.0027C29.0359 22.6028 29.576 21.2589 30.5364 20.2399C31.4969 19.2208 32.8068 18.6016 34.2043 18.5062C36.8377 18.3 39.4096 20.3201 39.9036 22.9802C40.1547 24.329 39.8894 25.7229 39.1604 26.8854C38.4313 28.048 37.2918 28.8942 35.9677 29.2564C35.4306 29.3887 34.8805 29.4612 34.3274 29.4726C29.2403 29.7369 25.5988 33.4627 25.4724 38.5369C25.3975 41.478 23.333 43.6726 20.3503 43.9802C17.8001 44.2346 15.2282 42.2877 14.6393 39.6293C14.5736 39.249 14.5281 38.8655 14.5029 38.4804Z" fill="url(#paint1_linear_784_31)"/>
<path d="M5.45322 29.4378C2.44719 29.4378 0.0666512 27.0421 0.041698 23.9813C0.0167448 20.9587 2.40061 18.5845 5.54471 18.4981C9.43575 18.3933 12.6048 16.242 13.9257 12.6624C14.2871 11.6177 14.4862 10.5238 14.5162 9.41873C14.6393 6.57904 16.8485 4.17828 19.63 4.022C22.5013 3.85574 25.0531 5.93729 25.4391 8.75037C25.6182 10.1105 25.2809 11.4883 24.4939 12.6122C23.7068 13.7361 22.527 14.5246 21.187 14.8221C20.49 14.9717 19.7531 14.9252 19.0411 15.02C14.265 15.6601 11.1093 19.2097 10.9795 24.0677C10.9709 24.7834 10.8209 25.4903 10.5382 26.1479C10.2555 26.8055 9.8457 27.4009 9.33226 27.8998C8.81881 28.3987 8.21185 28.7914 7.54618 29.0554C6.88052 29.3193 6.16926 29.4493 5.45322 29.4378Z" fill="url(#paint2_linear_784_31)"/>
<path d="M39.9801 38.5354C39.9568 41.528 37.4848 43.9936 34.5286 43.997C33.8003 43.9928 33.0799 43.8451 32.4088 43.5621C31.7376 43.2792 31.129 42.8666 30.6178 42.3481C30.1065 41.8296 29.7027 41.2153 29.4295 40.5405C29.1563 39.8657 29.019 39.1436 29.0256 38.4157C29.0472 35.4546 31.5376 33.0173 34.5303 33.0239C35.251 33.0254 35.9643 33.1695 36.6291 33.4478C37.2938 33.7261 37.8969 34.1332 38.4035 34.6455C38.9101 35.1579 39.3102 35.7653 39.5808 36.433C39.8514 37.1006 39.9871 37.8151 39.9801 38.5354Z" fill="url(#paint3_linear_784_31)"/>
<path d="M5.49 14.9268C2.44072 14.9451 0.0618436 12.541 0.0551894 9.43699C0.0485352 6.47926 2.48064 4.02364 5.41847 4.02197C8.41285 4.02197 10.9548 6.4643 10.9647 9.37049C10.9797 12.4878 8.58919 14.9102 5.49 14.9268Z" fill="url(#paint4_linear_784_31)"/>
</g>
<path d="M57.5284 39V9.90909H63.679V33.929H76.1506V39H57.5284ZM89.968 39.4261C87.7616 39.4261 85.8535 38.9574 84.2436 38.0199C82.6432 37.0729 81.4074 35.7566 80.5362 34.071C79.665 32.3759 79.2294 30.411 79.2294 28.1761C79.2294 25.9223 79.665 23.9527 80.5362 22.267C81.4074 20.572 82.6432 19.2557 84.2436 18.3182C85.8535 17.3712 87.7616 16.8977 89.968 16.8977C92.1745 16.8977 94.0779 17.3712 95.6783 18.3182C97.2881 19.2557 98.5286 20.572 99.3999 22.267C100.271 23.9527 100.707 25.9223 100.707 28.1761C100.707 30.411 100.271 32.3759 99.3999 34.071C98.5286 35.7566 97.2881 37.0729 95.6783 38.0199C94.0779 38.9574 92.1745 39.4261 89.968 39.4261ZM89.9964 34.7386C91.0002 34.7386 91.8383 34.4545 92.5107 33.8864C93.183 33.3087 93.6896 32.5227 94.0305 31.5284C94.3809 30.5341 94.5561 29.4025 94.5561 28.1335C94.5561 26.8646 94.3809 25.733 94.0305 24.7386C93.6896 23.7443 93.183 22.9583 92.5107 22.3807C91.8383 21.803 91.0002 21.5142 89.9964 21.5142C88.9832 21.5142 88.1309 21.803 87.4396 22.3807C86.7578 22.9583 86.2417 23.7443 85.8913 24.7386C85.5504 25.733 85.38 26.8646 85.38 28.1335C85.38 29.4025 85.5504 30.5341 85.8913 31.5284C86.2417 32.5227 86.7578 33.3087 87.4396 33.8864C88.1309 34.4545 88.9832 34.7386 89.9964 34.7386ZM114.471 47.6364C112.511 47.6364 110.83 47.3665 109.428 46.8267C108.036 46.2964 106.928 45.572 106.104 44.6534C105.281 43.7348 104.746 42.7027 104.499 41.5568L110.096 40.804C110.266 41.2396 110.536 41.6468 110.906 42.0256C111.275 42.4044 111.763 42.7074 112.369 42.9347C112.984 43.1714 113.732 43.2898 114.613 43.2898C115.929 43.2898 117.013 42.9678 117.866 42.3239C118.728 41.6894 119.158 40.6241 119.158 39.1278V35.1364H118.903C118.638 35.7424 118.24 36.3153 117.71 36.8551C117.179 37.3949 116.497 37.8352 115.664 38.1761C114.831 38.517 113.836 38.6875 112.681 38.6875C111.043 38.6875 109.551 38.3087 108.207 37.5511C106.871 36.7841 105.806 35.6146 105.011 34.0426C104.225 32.4612 103.832 30.4631 103.832 28.0483C103.832 25.5767 104.234 23.5123 105.039 21.8551C105.844 20.1979 106.914 18.9574 108.249 18.1335C109.594 17.3097 111.067 16.8977 112.667 16.8977C113.888 16.8977 114.911 17.1061 115.735 17.5227C116.559 17.9299 117.222 18.4413 117.724 19.0568C118.235 19.6629 118.628 20.2595 118.903 20.8466H119.13V17.1818H125.138V39.2131C125.138 41.0691 124.684 42.6222 123.775 43.8722C122.866 45.1222 121.606 46.0597 119.996 46.6847C118.396 47.3191 116.554 47.6364 114.471 47.6364ZM114.599 34.142C115.574 34.142 116.398 33.9006 117.07 33.4176C117.752 32.9252 118.273 32.2244 118.633 31.3153C119.002 30.3968 119.187 29.2983 119.187 28.0199C119.187 26.7415 119.007 25.6335 118.647 24.696C118.287 23.7491 117.766 23.0152 117.085 22.4943C116.403 21.9735 115.574 21.7131 114.599 21.7131C113.604 21.7131 112.766 21.983 112.085 22.5227C111.403 23.053 110.887 23.7917 110.536 24.7386C110.186 25.6856 110.011 26.7794 110.011 28.0199C110.011 29.2794 110.186 30.3684 110.536 31.2869C110.896 32.196 111.412 32.9015 112.085 33.4034C112.766 33.8958 113.604 34.142 114.599 34.142ZM139.812 39.4261C137.605 39.4261 135.697 38.9574 134.087 38.0199C132.487 37.0729 131.251 35.7566 130.38 34.071C129.509 32.3759 129.073 30.411 129.073 28.1761C129.073 25.9223 129.509 23.9527 130.38 22.267C131.251 20.572 132.487 19.2557 134.087 18.3182C135.697 17.3712 137.605 16.8977 139.812 16.8977C142.018 16.8977 143.922 17.3712 145.522 18.3182C147.132 19.2557 148.372 20.572 149.244 22.267C150.115 23.9527 150.55 25.9223 150.55 28.1761C150.55 30.411 150.115 32.3759 149.244 34.071C148.372 35.7566 147.132 37.0729 145.522 38.0199C143.922 38.9574 142.018 39.4261 139.812 39.4261ZM139.84 34.7386C140.844 34.7386 141.682 34.4545 142.354 33.8864C143.027 33.3087 143.533 32.5227 143.874 31.5284C144.225 30.5341 144.4 29.4025 144.4 28.1335C144.4 26.8646 144.225 25.733 143.874 24.7386C143.533 23.7443 143.027 22.9583 142.354 22.3807C141.682 21.803 140.844 21.5142 139.84 21.5142C138.827 21.5142 137.975 21.803 137.283 22.3807C136.602 22.9583 136.085 23.7443 135.735 24.7386C135.394 25.733 135.224 26.8646 135.224 28.1335C135.224 29.4025 135.394 30.5341 135.735 31.5284C136.085 32.5227 136.602 33.3087 137.283 33.8864C137.975 34.4545 138.827 34.7386 139.84 34.7386Z" fill="black"/>
<defs>
<linearGradient id="paint0_linear_784_31" x1="2.24603" y1="6.16153" x2="35.996" y2="40.6797" gradientUnits="userSpaceOnUse">
<stop stop-color="#EE2A31"/>
<stop offset="1" stop-color="#362466"/>
</linearGradient>
<linearGradient id="paint1_linear_784_31" x1="15.9344" y1="19.8675" x2="37.4596" y2="41.8669" gradientUnits="userSpaceOnUse">
<stop stop-color="#EE2A31"/>
<stop offset="1" stop-color="#362466"/>
</linearGradient>
<linearGradient id="paint2_linear_784_31" x1="1.47022" y1="5.38388" x2="22.923" y2="27.3408" gradientUnits="userSpaceOnUse">
<stop stop-color="#EE2A31"/>
<stop offset="1" stop-color="#362466"/>
</linearGradient>
<linearGradient id="paint3_linear_784_31" x1="29.6405" y1="33.6157" x2="38.8994" y2="43.0696" gradientUnits="userSpaceOnUse">
<stop stop-color="#EE2A31"/>
<stop offset="1" stop-color="#362466"/>
</linearGradient>
<linearGradient id="paint4_linear_784_31" x1="0.667755" y1="4.61006" x2="9.86876" y2="14.0244" gradientUnits="userSpaceOnUse">
<stop stop-color="#EE2A31"/>
<stop offset="1" stop-color="#362466"/>
</linearGradient>
<clipPath id="clip0_784_31">
<rect width="40" height="40" fill="white" transform="translate(0 4)"/>
</clipPath>
</defs>
</svg>
